<svg width="411" height="417" viewBox="0 0 411 417" fill="none" xmlns="http://www.w3.org/2000/svg">
<path d="M36.3759 416.86C31.9119 416.86 27.6546 416.447 23.6039 415.62C19.6359 414.876 16.3706 413.512 13.8079 411.528C11.3279 409.461 10.0879 406.527 10.0879 402.724V327.828H22.9839V355.232C25.4639 353.992 28.2332 353.041 31.2919 352.38C34.3506 351.719 36.9132 351.388 38.9799 351.388C48.4039 351.388 55.4719 354.199 60.1839 359.82C64.8959 365.441 67.2519 373.253 67.2519 383.256C67.2519 390.035 66.3426 395.615 64.5239 399.996C62.7879 404.377 60.4319 407.808 57.4559 410.288C54.5626 412.685 51.2559 414.38 47.5359 415.372C43.8986 416.364 40.1786 416.86 36.3759 416.86ZM35.7559 405.576C40.6332 405.576 44.3946 404.584 47.0399 402.6C49.6852 400.616 51.5039 397.971 52.4959 394.664C53.4879 391.357 53.9839 387.72 53.9839 383.752C53.9839 376.891 52.5786 371.641 49.7679 368.004C46.9572 364.284 42.6999 362.424 36.9959 362.424C34.8466 362.424 32.4906 362.713 29.9279 363.292C27.3652 363.871 25.0506 364.78 22.9839 366.02V399.5C22.9839 401.153 23.6452 402.435 24.9679 403.344C26.2906 404.171 27.9026 404.749 29.8039 405.08C31.7879 405.411 33.7719 405.576 35.7559 405.576ZM109.041 416.86C98.9555 416.86 91.4329 414.008 86.4729 408.304C81.5955 402.6 79.1569 394.457 79.1569 383.876C79.1569 372.716 81.6782 364.491 86.7209 359.2C91.8462 353.909 99.2449 351.264 108.917 351.264C119.085 351.264 126.649 354.116 131.609 359.82C136.569 365.441 139.049 373.46 139.049 383.876C139.049 394.375 136.445 402.517 131.237 408.304C126.029 414.008 118.63 416.86 109.041 416.86ZM108.917 405.824C115.2 405.824 119.622 403.799 122.185 399.748C124.748 395.697 126.029 390.407 126.029 383.876C126.029 376.767 124.706 371.393 122.061 367.756C119.416 364.036 115.034 362.176 108.917 362.176C102.634 362.176 98.2529 364.119 95.7729 368.004C93.2929 371.807 92.0529 377.097 92.0529 383.876C92.0529 390.737 93.3342 396.111 95.8969 399.996C98.4595 403.881 102.8 405.824 108.917 405.824ZM154.069 357.836C157.706 355.935 162.17 354.405 167.461 353.248C172.834 352.008 178.001 351.388 182.961 351.388C191.723 351.388 198.13 353.248 202.181 356.968C206.314 360.605 208.381 366.227 208.381 373.832V415H195.361V375.568C195.361 373.501 194.989 371.476 194.245 369.492C193.501 367.508 192.054 365.855 189.905 364.532C187.838 363.209 184.738 362.548 180.605 362.548C178.29 362.548 175.975 362.755 173.661 363.168C171.346 363.581 169.155 364.16 167.089 364.904V415H154.069V357.836ZM223.129 415V404.088L255.989 363.044H223.873V352.752H270.373V363.416L238.629 404.088H270.373V415H223.129ZM284.72 415V400.492H299.476V415H284.72ZM339.992 416.86C335.776 416.86 331.725 416.281 327.84 415.124C323.955 413.967 320.772 411.941 318.292 409.048C315.812 406.155 314.572 402.104 314.572 396.896C314.572 390.035 316.556 384.951 320.524 381.644C324.575 378.255 330.113 376.56 337.14 376.56C341.191 376.56 344.745 376.973 347.804 377.8C350.945 378.627 353.591 379.66 355.74 380.9V375.072C355.74 370.691 354.376 367.508 351.648 365.524C349.003 363.457 345.283 362.424 340.488 362.424C336.933 362.424 333.296 363.003 329.576 364.16C325.939 365.235 322.921 366.764 320.524 368.748V356.596C322.839 355.108 326.187 353.868 330.568 352.876C334.949 351.884 339.537 351.388 344.332 351.388C348.217 351.388 352.02 352.008 355.74 353.248C359.543 354.488 362.643 356.637 365.04 359.696C367.52 362.755 368.76 366.888 368.76 372.096L368.636 401.856C368.636 405.907 367.355 409.007 364.792 411.156C362.312 413.305 358.923 414.793 354.624 415.62C350.325 416.447 345.448 416.86 339.992 416.86ZM327.468 396.276C327.468 398.756 328.171 400.781 329.576 402.352C330.981 403.84 332.717 404.956 334.784 405.7C336.933 406.361 339.165 406.692 341.48 406.692C346.275 406.692 349.829 406.361 352.144 405.7C354.541 404.956 355.74 403.427 355.74 401.112V389.084C353.839 388.257 351.689 387.596 349.292 387.1C346.977 386.604 344.497 386.356 341.852 386.356C332.263 386.356 327.468 389.663 327.468 396.276ZM387.053 342.832V331.052H400.941V342.832H387.053ZM387.425 415V353.124H400.445L400.569 415H387.425Z" fill="white"/>
<mask id="mask0_21_431" style="mask-type:alpha" maskUnits="userSpaceOnUse" x="104" y="42" width="206" height="206">
<path d="M303.435 42.4697H110.374C107.06 42.4697 104.374 45.156 104.374 48.4697V241.531C104.374 244.844 107.06 247.531 110.374 247.531H303.435C306.749 247.531 309.435 244.844 309.435 241.531V48.4697C309.435 45.156 306.749 42.4697 303.435 42.4697Z" fill="white"/>
</mask>
<g mask="url(#mask0_21_431)">
<path d="M303.435 42.4697H110.374C107.06 42.4697 104.374 45.156 104.374 48.4697V241.531C104.374 244.844 107.06 247.531 110.374 247.531H303.435C306.749 247.531 309.435 244.844 309.435 241.531V48.4697C309.435 45.156 306.749 42.4697 303.435 42.4697Z" stroke="white" stroke-opacity="0.6" stroke-width="62"/>
</g>
<mask id="mask1_21_431" style="mask-type:alpha" maskUnits="userSpaceOnUse" x="62" y="2" width="287" height="286">
<path d="M346.257 140.757L209.743 4.24264C207.399 1.89949 203.601 1.89949 201.257 4.24264L64.7426 140.757C62.3995 143.101 62.3995 146.9 64.7426 149.243L201.257 285.757C203.601 288.101 207.399 288.101 209.743 285.757L346.257 149.243C348.601 146.9 348.601 143.101 346.257 140.757Z" fill="white"/>
</mask>
<g mask="url(#mask1_21_431)">
<path d="M346.257 140.757L209.743 4.24264C207.399 1.89949 203.601 1.89949 201.257 4.24264L64.7426 140.757C62.3995 143.101 62.3995 146.9 64.7426 149.243L201.257 285.757C203.601 288.101 207.399 288.101 209.743 285.757L346.257 149.243C348.601 146.9 348.601 143.101 346.257 140.757Z" stroke="white" stroke-opacity="0.6" stroke-width="62"/>
</g>
<mask id="mask2_21_431" style="mask-type:alpha" maskUnits="userSpaceOnUse" x="82" y="20" width="249" height="250">
<path d="M326.147 70.9471L139.665 20.9792C136.464 20.1216 133.174 22.0211 132.316 25.2219L82.3484 211.704C81.4907 214.905 83.3902 218.195 86.591 219.053L273.074 269.021C276.274 269.878 279.564 267.979 280.422 264.778L330.39 78.2955C331.248 75.0947 329.348 71.8047 326.147 70.9471Z" fill="white"/>
</mask>
<g mask="url(#mask2_21_431)">
<path d="M326.147 70.9471L139.665 20.9792C136.464 20.1216 133.174 22.0211 132.316 25.2219L82.3484 211.704C81.4907 214.905 83.3902 218.195 86.591 219.053L273.074 269.021C276.274 269.878 279.564 267.979 280.422 264.778L330.39 78.2955C331.248 75.0947 329.348 71.8047 326.147 70.9471Z" stroke="white" stroke-opacity="0.6" stroke-width="62"/>
</g>
<mask id="mask3_21_431" style="mask-type:alpha" maskUnits="userSpaceOnUse" x="68" y="7" width="276" height="276">
<path d="M342.952 177.333L246.422 10.1371C244.765 7.26731 241.095 6.28406 238.226 7.94092L71.03 104.471C68.1602 106.128 67.177 109.798 68.8338 112.668L165.364 279.863C167.021 282.733 170.691 283.716 173.56 282.059L340.756 185.529C343.626 183.872 344.609 180.203 342.952 177.333Z" fill="white"/>
</mask>
<g mask="url(#mask3_21_431)">
<path d="M342.952 177.333L246.422 10.1371C244.765 7.26731 241.095 6.28406 238.226 7.94092L71.03 104.471C68.1602 106.128 67.177 109.798 68.8338 112.668L165.364 279.863C167.021 282.733 170.691 283.716 173.56 282.059L340.756 185.529C343.626 183.872 344.609 180.203 342.952 177.333Z" stroke="white" stroke-opacity="0.6" stroke-width="62"/>
</g>
<mask id="mask4_21_431" style="mask-type:alpha" maskUnits="userSpaceOnUse" x="81" y="20" width="250" height="250">
<path d="M330.056 211.704L280.088 25.2219C279.23 22.0211 275.94 20.1216 272.74 20.9792L86.257 70.9471C83.0562 71.8047 81.1567 75.0948 82.0144 78.2955L131.982 264.778C132.84 267.979 136.13 269.878 139.331 269.021L325.813 219.053C329.014 218.195 330.914 214.905 330.056 211.704Z" fill="white"/>
</mask>
<g mask="url(#mask4_21_431)">
<path d="M330.056 211.704L280.088 25.2219C279.23 22.0211 275.94 20.1216 272.74 20.9792L86.257 70.9471C83.0562 71.8047 81.1567 75.0948 82.0144 78.2955L131.982 264.778C132.84 267.979 136.13 269.878 139.331 269.021L325.813 219.053C329.014 218.195 330.914 214.905 330.056 211.704Z" stroke="white" stroke-opacity="0.6" stroke-width="62"/>
</g>
<mask id="mask5_21_431" style="mask-type:alpha" maskUnits="userSpaceOnUse" x="68" y="7" width="276" height="276">
<path d="M246.423 279.863L342.953 112.667C344.61 109.797 343.627 106.128 340.757 104.471L173.561 7.94049C170.691 6.28364 167.022 7.26689 165.365 10.1366L68.8346 177.332C67.1777 180.202 68.161 183.872 71.0308 185.529L238.226 282.059C241.096 283.716 244.766 282.733 246.423 279.863Z" fill="white"/>
</mask>
<g mask="url(#mask5_21_431)">
<path d="M246.423 279.863L342.953 112.667C344.61 109.797 343.627 106.128 340.757 104.471L173.561 7.94051C170.691 6.28365 167.022 7.2669 165.365 10.1367L68.8346 177.332C67.1777 180.202 68.161 183.872 71.0308 185.529L238.226 282.059C241.096 283.716 244.766 282.733 246.423 279.863Z" stroke="white" stroke-opacity="0.6" stroke-width="62"/>
</g>
</svg>
