<svg width="205" height="55" viewBox="0 0 205 55" fill="none" xmlns="http://www.w3.org/2000/svg">
<g clip-path="url(#clip0_17_74)">
<path d="M76.6998 41.0508C75.1739 41.0508 73.7187 40.9087 72.3339 40.6243C70.9775 40.3684 69.8614 39.8993 68.9853 39.217C68.1375 38.5061 67.7136 37.497 67.7136 36.1891V10.4305H72.1219V19.8554C72.9697 19.429 73.9162 19.102 74.9619 18.8746C76.0076 18.6471 76.8834 18.5334 77.59 18.5334C80.8114 18.5334 83.2275 19.5001 84.8383 21.4334C86.449 23.3667 87.2544 26.0534 87.2544 29.4936C87.2544 31.8249 86.9436 33.744 86.3218 35.2509C85.7284 36.7576 84.923 37.9376 83.9057 38.7905C82.9168 39.6149 81.7863 40.1979 80.5147 40.539C79.2715 40.8802 77.9998 41.0508 76.6998 41.0508ZM76.4879 37.1699C78.155 37.1699 79.441 36.8288 80.3452 36.1464C81.2493 35.4641 81.8711 34.5544 82.2102 33.417C82.5493 32.2798 82.7189 31.0288 82.7189 29.6641C82.7189 27.3044 82.2386 25.499 81.2777 24.248C80.3168 22.9686 78.8616 22.3289 76.9118 22.3289C76.1772 22.3289 75.3718 22.4284 74.4957 22.6275C73.6195 22.8265 72.8285 23.1392 72.1219 23.5657V35.0803C72.1219 35.6488 72.3479 36.0897 72.8001 36.4023C73.2524 36.6867 73.8034 36.8855 74.4533 36.9994C75.1315 37.1132 75.8097 37.1699 76.4879 37.1699ZM101.539 41.0508C98.0919 41.0508 95.5203 40.0699 93.8248 38.1082C92.1577 36.1464 91.3239 33.346 91.3239 29.7068C91.3239 25.8686 92.1857 23.0397 93.9096 21.2201C95.6615 19.4005 98.1907 18.4907 101.497 18.4907C104.973 18.4907 107.558 19.4716 109.254 21.4334C110.949 23.3667 111.797 26.1245 111.797 29.7068C111.797 33.3176 110.907 36.1179 109.127 38.1082C107.346 40.0699 104.817 41.0508 101.539 41.0508ZM101.497 37.2552C103.645 37.2552 105.156 36.5588 106.032 35.1656C106.909 33.7724 107.346 31.9529 107.346 29.7068C107.346 27.2617 106.894 25.4137 105.99 24.1627C105.086 22.8833 103.588 22.2436 101.497 22.2436C99.3492 22.2436 97.8516 22.9118 97.0039 24.248C96.1561 25.5559 95.7322 27.3754 95.7322 29.7068C95.7322 32.0666 96.1701 33.9146 97.0463 35.2509C97.9224 36.587 99.406 37.2552 101.497 37.2552ZM116.932 20.751C118.175 20.0971 119.701 19.5711 121.509 19.1731C123.346 18.7466 125.112 18.5334 126.808 18.5334C129.803 18.5334 131.993 19.1731 133.378 20.4525C134.791 21.7034 135.497 23.6368 135.497 26.2524V40.4111H131.047V26.8495C131.047 26.1387 130.92 25.4421 130.665 24.7598C130.411 24.0774 129.916 23.5088 129.182 23.0539C128.475 22.599 127.415 22.3716 126.003 22.3716C125.211 22.3716 124.42 22.4427 123.629 22.5848C122.837 22.727 122.089 22.926 121.382 23.1819V40.4111H116.932V20.751ZM140.539 40.4111V36.6582L151.772 22.5422H140.793V19.0025H156.688V22.6701L145.837 36.6582H156.688V40.4111H140.539ZM161.593 40.4111V35.4214H166.637V40.4111H161.593ZM180.487 41.0508C179.046 41.0508 177.661 40.8517 176.333 40.4537C175.005 40.0558 173.917 39.359 173.069 38.3641C172.221 37.3691 171.797 35.9758 171.797 34.1847C171.797 31.8249 172.476 30.0764 173.832 28.9392C175.217 27.7735 177.11 27.1906 179.512 27.1906C180.897 27.1906 182.112 27.3328 183.157 27.6171C184.231 27.9014 185.135 28.2568 185.87 28.6833V26.6789C185.87 25.1721 185.404 24.0774 184.471 23.3951C183.567 22.6843 182.295 22.3289 180.656 22.3289C179.441 22.3289 178.198 22.528 176.926 22.926C175.683 23.2956 174.651 23.8216 173.832 24.5039V20.3245C174.623 19.8128 175.768 19.3863 177.265 19.0452C178.763 18.704 180.331 18.5334 181.97 18.5334C183.298 18.5334 184.598 18.7466 185.87 19.1731C187.17 19.5996 188.23 20.3388 189.049 21.3907C189.897 22.4427 190.321 23.8642 190.321 25.6554L190.278 35.8905C190.278 37.2838 189.84 38.35 188.964 39.089C188.117 39.8281 186.958 40.3399 185.489 40.6243C184.019 40.9087 182.352 41.0508 180.487 41.0508ZM176.206 33.9715C176.206 34.8244 176.446 35.5208 176.926 36.0611C177.407 36.5729 178 36.9567 178.707 37.2126C179.441 37.4399 180.204 37.5538 180.995 37.5538C182.635 37.5538 183.849 37.4399 184.641 37.2126C185.46 36.9567 185.87 36.4309 185.87 35.6347V31.498C185.22 31.2136 184.485 30.9862 183.666 30.8156C182.875 30.645 182.027 30.5597 181.123 30.5597C177.845 30.5597 176.206 31.697 176.206 33.9715ZM196.574 15.5908V11.5394H201.321V15.5908H196.574ZM196.701 40.4111V19.1304H201.152L201.194 40.4111H196.701Z" fill="#54EABD"/>
<mask id="mask0_17_74" style="mask-type:alpha" maskUnits="userSpaceOnUse" x="8" y="7" width="39" height="40">
<path d="M45.6785 7.95792H8.85482C8.47723 7.95792 8.17114 8.26588 8.17114 8.64576V45.6943C8.17114 46.0742 8.47723 46.3821 8.85482 46.3821H45.6785C46.056 46.3821 46.3621 46.0742 46.3621 45.6943V8.64576C46.3621 8.26588 46.056 7.95792 45.6785 7.95792Z" fill="white"/>
</mask>
<g mask="url(#mask0_17_74)">
<path d="M45.6785 7.95792H8.85482C8.47723 7.95792 8.17114 8.26588 8.17114 8.64576V45.6943C8.17114 46.0742 8.47723 46.3821 8.85482 46.3821H45.6785C46.056 46.3821 46.3621 46.0742 46.3621 45.6943V8.64576C46.3621 8.26588 46.056 7.95792 45.6785 7.95792Z" stroke="#54EABD" stroke-opacity="0.6" stroke-width="46"/>
</g>
<mask id="mask1_17_74" style="mask-type:alpha" maskUnits="userSpaceOnUse" x="0" y="0" width="54" height="55">
<path d="M53.5268 26.6837L27.4886 0.486382C27.2216 0.217761 26.7887 0.217761 26.5217 0.486382L0.483448 26.6837C0.216456 26.9523 0.216457 27.3878 0.483448 27.6564L26.5217 53.8537C26.7887 54.1223 27.2216 54.1223 27.4886 53.8537L53.5268 27.6564C53.7938 27.3878 53.7938 26.9523 53.5268 26.6837Z" fill="white"/>
</mask>
<g mask="url(#mask1_17_74)">
<path d="M53.5268 26.6837L27.4886 0.486382C27.2216 0.217761 26.7887 0.217761 26.5217 0.486382L0.483448 26.6837C0.216456 26.9523 0.216457 27.3878 0.483448 27.6564L26.5217 53.8537C26.7887 54.1223 27.2216 54.1223 27.4886 53.8537L53.5268 27.6564C53.7938 27.3878 53.7938 26.9523 53.5268 26.6837Z" stroke="#54EABD" stroke-opacity="0.6" stroke-width="46"/>
</g>
<mask id="mask2_17_74" style="mask-type:alpha" maskUnits="userSpaceOnUse" x="3" y="3" width="48" height="48">
<path d="M49.8936 13.407L14.3247 3.81813C13.96 3.71981 13.5851 3.93757 13.4874 4.30452L3.9567 40.0907C3.85897 40.4576 4.07541 40.8348 4.44013 40.9331L40.009 50.522C40.3738 50.6203 40.7486 50.4025 40.8464 50.0356L50.377 14.2494C50.4747 13.8825 50.2583 13.5053 49.8936 13.407Z" fill="white"/>
</mask>
<g mask="url(#mask2_17_74)">
<path d="M49.8937 13.407L14.3248 3.81813C13.9601 3.71981 13.5852 3.93757 13.4875 4.30452L3.95682 40.0907C3.8591 40.4576 4.07554 40.8348 4.44025 40.9331L40.0092 50.522C40.3739 50.6203 40.7488 50.4025 40.8465 50.0356L50.3771 14.2494C50.4749 13.8825 50.2584 13.5053 49.8937 13.407Z" stroke="#54EABD" stroke-opacity="0.6" stroke-width="46"/>
</g>
<mask id="mask3_17_74" style="mask-type:alpha" maskUnits="userSpaceOnUse" x="1" y="1" width="52" height="53">
<path d="M52.8214 33.6064L34.4096 1.52148C34.2208 1.19248 33.8027 1.07976 33.4757 1.26971L1.58546 19.794C1.25847 19.9839 1.14643 20.4046 1.33522 20.7336L19.747 52.8186C19.9358 53.1475 20.354 53.2603 20.681 53.0703L52.5712 34.5461C52.8982 34.3561 53.0102 33.9354 52.8214 33.6064Z" fill="white"/>
</mask>
<g mask="url(#mask3_17_74)">
<path d="M52.8214 33.6064L34.4096 1.52148C34.2208 1.19248 33.8027 1.07976 33.4757 1.26971L1.58547 19.794C1.25847 19.9839 1.14643 20.4046 1.33522 20.7336L19.747 52.8186C19.9358 53.1475 20.354 53.2603 20.681 53.0703L52.5712 34.5461C52.8982 34.3561 53.0102 33.9354 52.8214 33.6064Z" stroke="#54EABD" stroke-opacity="0.6" stroke-width="46"/>
</g>
<mask id="mask4_17_74" style="mask-type:alpha" maskUnits="userSpaceOnUse" x="3" y="3" width="48" height="48">
<path d="M50.315 40.0906L40.7844 4.30452C40.6866 3.93757 40.3118 3.71981 39.947 3.81813L4.37814 13.407C4.01342 13.5053 3.79698 13.8825 3.8947 14.2494L13.4254 50.0356C13.5231 50.4025 13.898 50.6203 14.2627 50.5219L49.8316 40.9331C50.1963 40.8348 50.4128 40.4576 50.315 40.0906Z" fill="white"/>
</mask>
<g mask="url(#mask4_17_74)">
<path d="M50.315 40.0906L40.7844 4.30452C40.6866 3.93757 40.3118 3.71981 39.947 3.81813L4.37814 13.407C4.01342 13.5053 3.79698 13.8825 3.89471 14.2494L13.4254 50.0356C13.5231 50.4025 13.898 50.6203 14.2627 50.5219L49.8316 40.9331C50.1963 40.8348 50.4128 40.4576 50.315 40.0906Z" stroke="#54EABD" stroke-opacity="0.6" stroke-width="46"/>
</g>
<mask id="mask5_17_74" style="mask-type:alpha" maskUnits="userSpaceOnUse" x="1" y="1" width="52" height="53">
<path d="M34.4094 52.8185L52.8212 20.7336C53.01 20.4046 52.898 19.9839 52.571 19.794L20.6808 1.26969C20.3538 1.07975 19.9357 1.19247 19.7469 1.52146L1.33507 33.6064C1.14627 33.9354 1.25831 34.3561 1.58531 34.546L33.4755 53.0703C33.8025 53.2602 34.2206 53.1475 34.4094 52.8185Z" fill="white"/>
</mask>
<g mask="url(#mask5_17_74)">
<path d="M34.4094 52.8186L52.8212 20.7336C53.01 20.4046 52.898 19.9839 52.571 19.794L20.6808 1.26972C20.3538 1.07978 19.9357 1.1925 19.7469 1.52149L1.33507 33.6065C1.14627 33.9354 1.25831 34.3561 1.58531 34.5461L33.4755 53.0703C33.8025 53.2603 34.2206 53.1476 34.4094 52.8186Z" stroke="#54EABD" stroke-opacity="0.6" stroke-width="46"/>
</g>
</g>
<defs>
<clipPath id="clip0_17_74">
<rect width="204.76" height="54.34" fill="white"/>
</clipPath>
</defs>
</svg>
